<svg width="388" height="388" xmlns="http://www.w3.org/2000/svg" xmlns:xlink="http://www.w3.org/1999/xlink" overflow="hidden"><defs><clipPath id="clip0"><rect x="430" y="117" width="388" height="388"/></clipPath></defs><g clip-path="url(#clip0)" transform="translate(-430 -117)"><path d="M798 131 798 169.5 624 208 450 169.5 450 131 624 169.5Z" fill="#333333" fill-rule="evenodd"/><path d="M450 198 624 236.333 798 198 798 236.333 624 274.667 450 313 450 274.667 537 255.5 450 236.333Z" fill="#FFC000" fill-rule="evenodd"/><path d="M450 187 624 225.667 798 187 798 225.667 624 264.333 450 303 450 264.333 537 245 450 225.667Z" fill="#333333" fill-rule="evenodd"/><path d="M798 359 624 320.667 450 359 450 320.667 624 282.333 798 244 798 282.333 711 301.5 798 320.667Z" fill="#333333" fill-rule="evenodd"/><path d="M798 490 624 451.667 450 490 450 451.667 624 413.333 798 375 798 413.333 711 432.5 798 451.667Z" fill="#333333" fill-rule="evenodd"/><path d="M0 87 19 0 57 174 19 174 0 87Z" fill="#FFC000" fill-rule="evenodd" transform="matrix(-1.83697e-16 -1 -1 1.83697e-16 624 432)"/><path d="M474 367 623.5 331 773 367 623.5 403Z" fill="#ED7D31" fill-rule="evenodd"/><path d="M629 397 629 337 754 367 629 397Z" fill="#333333" fill-rule="evenodd"/></g></svg>