<svg width="388" height="388" xmlns="http://www.w3.org/2000/svg" xmlns:xlink="http://www.w3.org/1999/xlink" overflow="hidden"><defs><clipPath id="clip0"><rect x="430" y="117" width="388" height="388"/></clipPath></defs><g clip-path="url(#clip0)" transform="translate(-430 -117)"><path d="M798 148 798 186.5 624 225 450 186.5 450 148 624 186.5Z" fill="#333333" fill-rule="evenodd"/><path d="M450 215 624 253.333 798 215 798 253.333 624 291.667 450 330 450 291.667 537 272.5 450 253.333Z" fill="#FFC000" fill-rule="evenodd"/><path d="M450 204 624 242.333 798 204 798 242.333 624 280.667 450 319 450 280.667 537 261.5 450 242.333Z" fill="#333333" fill-rule="evenodd"/><path d="M450 348 624 386.333 798 348 798 348 798 348 798 386.333 711 405.5 798 424.667 798 463 624 424.667 450 463 450 463 450 463 450 424.667 537 405.5 450 386.333Z" fill="#FFC000" fill-rule="evenodd"/><path d="M798 473 624 434.667 450 473 450 434.667 624 396.333 798 358 798 396.333 711 415.5 798 434.667Z" fill="#333333" fill-rule="evenodd"/><path d="M798 259 798 340.634 623.817 379 469 344.9 469 331.466 623.852 297.358 798 259Z" fill="#515151" fill-rule="evenodd"/><path d="M637.32 333.702 703.271 300.023 777.166 304.845 711.216 338.524Z" fill="#FFFFFF" fill-rule="evenodd"/></g></svg>